<svg width="162" height="153" xmlns="http://www.w3.org/2000/svg" xmlns:xlink="http://www.w3.org/1999/xlink" overflow="hidden"><defs><clipPath id="clip0"><path d="M287 199 449 199 449 352 287 352Z" fill-rule="evenodd" clip-rule="evenodd"/></clipPath></defs><g clip-path="url(#clip0)" transform="translate(-287 -199)"><path d="M297 275.5C297 233.802 330.802 200 372.5 200 414.197 200 448 233.802 448 275.5 448 317.197 414.197 351 372.5 351 330.802 351 297 317.197 297 275.5Z" fill="#F05677" fill-rule="evenodd"/><path d="M329.981 336.882C318.796 345.845 302.301 345.3 293.137 335.664 283.974 326.028 285.613 310.951 296.798 301.988 298.772 300.406 300.972 299.081 303.328 298.055Z" fill="#F05677" fill-rule="evenodd"/><path d="M310 275C310 240.206 338.206 212 373 212 407.794 212 436 240.206 436 275 436 309.794 407.794 338 373 338 338.206 338 310 309.794 310 275Z" fill="#E874A0" fill-rule="evenodd"/><path d="M323.353 261.984 385.733 225.969 421.748 288.349 359.368 324.364Z" fill="#FFFFFF" fill-rule="evenodd"/><path d="M324.682 260.762 384.469 225.197 350.581 304.302Z" fill="#F2F2F2" fill-rule="evenodd"/><text fill="#F593A8" font-family="Forte,Forte_MSFontService,sans-serif" font-style="oblique" font-weight="700" font-size="59" transform="translate(343.854 292)">A</text></g></svg>